<?xml version="1.0" encoding="utf-8"?>
<!-- Generator: Adobe Illustrator 27.1.0, SVG Export Plug-In . SVG Version: 6.00 Build 0)  -->
<svg version="1.1" xmlns="http://www.w3.org/2000/svg" xmlns:xlink="http://www.w3.org/1999/xlink" x="0px" y="0px"
   viewBox="0 0 722 355" style="enable-background:new 0 0 722 355;" xml:space="preserve">
<style type="text/css">
  .st0{display:none;}
  .st1{display:inline;}
  .st2{fill:#A09997;}
  .st3{fill:#FFFFFF;}
  .st4{fill:#CFCCCB;}
  .st5{fill:#E7E5E5;}
  .st6{fill:#D6D3D3;}
  .st7{fill:#E4E2E2;}
  .st8{fill:#DBD9D8;}
  .st9{fill:#E8E7E6;}
  .st10{fill:#DCDDDC;}
  .st11{fill:#ADA7A6;}
  .st12{fill:#AEA9A8;}
  .st13{fill:#F7F7F7;}
</style>
<g id="Capa_1" class="st0">
  <g class="st1">
    <g>
      <path class="st2" d="M722,1.25c0,91.9,0,183.81,0,275.71c-3.14,0.62-3.95-1.96-4.99-3.88c-8.48-15.65-16.77-31.41-25.12-47.13
        c-18.74-35.26-37.52-70.5-56.26-105.76c-12.88-24.24-25.86-48.43-38.6-72.76c-1.91-3.65-3.46-7.55-6.5-10.49
        c-2.34-0.36-2.98,1.87-4.27,2.94c-44.31,36.97-88.46,74.13-132.65,111.24c-36.17,30.37-72.33,60.76-108.49,91.14
        c-1.78,1.49-3.45,3.16-5.85,3.68c-2.42,0.31-4.09-1.1-5.71-2.57c-26.38-23.93-53.04-47.54-79.56-71.32
        c-23.91-21.44-47.89-42.82-71.84-64.21c-0.37-0.33-0.86-0.5-1.34-0.62c-2.29,0.1-3.48,1.91-4.76,3.33
        c-15.57,17.33-31.44,34.39-47.12,51.62c-12.2,13.42-24.54,26.72-36.76,40.13c-16.03,17.58-32.15,35.09-48.16,52.7
        c-11.87,13.05-23.87,25.98-35.71,39.06c-1.23,1.35-2.5,2.72-4.14,3.58c-1.39,0.74-2.91,1.37-3.3-1.12
        c0.01-96.49,0-192.96,0.02-289.43c0-1.98-0.37-3.99,0.36-5.93C3.03,0.39,4.89,0.78,6.7,0.77c236.64-0.02,473.27-0.02,709.91,0
        C718.4,0.78,720.27,0.32,722,1.25z"/>
      <path class="st3" d="M591.13,34.33c3,2.28,4.19,5.79,5.85,8.91c10.41,19.5,20.63,39.11,31.01,58.63
        c13.16,24.76,26.43,49.46,39.59,74.23c15.17,28.55,30.14,57.22,45.52,85.66c2.78,5.14,4.6,10.94,8.91,15.21
        c0,25.64,0,51.28,0,76.92c-3.28,1.07-6.65,0.23-9.96,0.5c-5.09,0-10.19,0-15.28,0c-1.66-0.01-3.32,0.01-4.97-0.01
        c-2.46-0.33-3.62-2.16-4.66-4.1c-11.27-20.95-22.34-42.01-33.54-63.01c-18.63-34.94-37.2-69.92-55.8-104.88
        c-8.28-15.57-16.74-31.05-24.73-46.78c-0.84-1.66-1.41-3.36-1.65-5.2c-0.6-2.33-0.27-4.62,0.18-6.93
        c5.19-26.91,10.42-53.82,15.66-80.73C587.85,39.65,588.51,36.53,591.13,34.33z"/>
      <path class="st4" d="M722,1.25c-237.84,0-475.67,0-713.51,0.01c-2.33,0-4.66,0.08-6.99,0.12c-0.35-0.22-0.48-0.46-0.4-0.72
        c0.09-0.27,0.18-0.41,0.29-0.41c238.7,0,477.41,0,716.11,0.06C718.97,0.32,720.89-0.84,722,1.25z"/>
      <path class="st4" d="M690.98,353.88c1.67,0.03,3.34,0.06,5.01,0.09c0.68,0.28,0.69,0.58,0.03,0.91c-129.6,0-259.19,0-388.79,0
        c-0.06-0.33-0.13-0.65-0.19-0.98c0.4-0.55,0.92-0.95,1.56-1.19c3.42-0.8,6.89-0.99,10.4-0.99
        c120.33,0.02,240.65,0.01,360.98,0.03C683.77,351.75,687.7,351.19,690.98,353.88z"/>
      <path class="st5" d="M1.39,0.26C1.43,0.63,1.47,1.01,1.5,1.38C1.47,12.69,1.4,23.99,1.4,35.3
        c-0.01,85.47-0.01,170.94,0.04,256.41c0,2.04-0.91,4.34,0.95,6.13c0.35,0.83-0.07,1.26-0.78,1.56c-0.48,0.03-0.89-0.11-1.22-0.46
        c0-98.07-0.01-196.13,0.06-294.2C0.46,3.28-0.7,1.36,1.39,0.26z"/>
      <path class="st4" d="M209.28,354.88c-57.64,0-115.27,0-172.91,0c-0.07-0.32-0.13-0.65-0.2-0.97c0.39-0.55,0.9-0.96,1.52-1.21
        c2.57-0.8,5.21-0.97,7.88-0.97c51.86,0.01,103.72-0.01,155.58,0.04c2.61,0,5.37-0.5,7.69,1.33
        C209.41,353.6,209.55,354.19,209.28,354.88z"/>
      <path class="st6" d="M209.28,354.88c0.01-0.29,0.01-0.59,0.02-0.88c0.5-1.43,1.57-1.94,3-1.87c15.07-0.82,30.16-0.26,45.24-0.36
        c14.26-0.1,28.52-0.07,42.77,0.02c2.43,0.02,5.08-0.38,6.81,2.07c0.03,0.34,0.07,0.68,0.1,1.02
        C274.58,354.88,241.93,354.88,209.28,354.88z"/>
      <path class="st7" d="M0.39,298.94c0.33,0,0.67,0,1,0c1.71,1.17,2.03,2.93,2.05,4.81c0.13,15.41,0.15,30.81,0,46.22
        c-0.01,1.18-0.27,2.3-0.84,3.34c-0.35,0.56-0.75,1.09-1.21,1.57c-2.49-0.55-0.88-2.47-0.89-3.5
        C0.35,333.9,0.39,316.42,0.39,298.94z"/>
      <path class="st6" d="M1.39,354.88c0.02-0.32,0.03-0.65,0.03-0.97c1.4-1.65,3.26-2.09,5.33-2.11c8.09-0.09,16.17-0.1,24.26,0.01
        c2,0.03,4,0.14,5.3,2.04c0.02,0.34,0.05,0.69,0.07,1.03C24.71,354.88,13.05,354.88,1.39,354.88z"/>
      <path class="st8" d="M696.01,354.88c0-0.3-0.01-0.6-0.03-0.91c5.33-0.01,10.66-0.02,15.99-0.04c0.67,0.29,0.68,0.61,0.03,0.94
        C706.68,354.88,701.34,354.88,696.01,354.88z"/>
      <path class="st9" d="M712.01,354.88c0-0.31-0.01-0.63-0.03-0.94c3.34-0.02,6.68-0.04,10.03-0.06
        C718.84,355.98,715.32,354.39,712.01,354.88z"/>
      <path class="st10" d="M307.13,353.86c-30.24,0.01-60.47,0.02-90.71,0.01c-1.78,0-3.7,0.41-5.19-1.1
        c-0.65-2.95,1.76-4.09,3.43-5.52c22.23-18.99,44.67-37.72,67.1-56.46c2.3-1.92,4.4-4.05,6.77-5.88
        c14.99-11.63,29.04-24.38,43.73-36.38c2.11-1.73,4.29-2.99,6.95-3.49c16.41-13.91,32.76-27.88,49.24-41.7
        c19.66-16.48,39.48-32.76,59.12-49.26c18-15.12,35.79-30.49,53.79-45.61c19.64-16.5,39.45-32.79,59.13-49.25
        c9.27-7.75,18.41-15.66,27.6-23.52c0.9-0.77,1.73-1.59,3.05-1.37c-5.92,30.15-11.85,60.3-17.72,90.45
        c-0.41,2.09-0.29,4.29-0.42,6.44c-1.67,2.96-4.23,5.04-6.79,7.19c-48.62,40.72-97.15,81.53-145.69,122.35
        c-35.29,29.67-70.32,59.64-105.9,88.96c-2.26,1.86-4.92,2.7-7.32,4.14L307.13,353.86z"/>
      <path class="st10" d="M36.31,353.85c-11.63,0.02-23.25,0.04-34.88,0.06c-0.01-18.32-0.02-36.64-0.03-54.97
        c0.33-0.37,0.66-0.74,1-1.1c8.52-9.29,17.07-18.55,25.54-27.88c12.48-13.75,24.89-27.57,37.37-41.32
        c7.58-8.35,15.2-16.68,22.89-24.93c13.92-14.92,27.75-29.91,41.29-45.17c8.7-9.8,17.85-19.2,26.75-28.83
        c6.98-7.55,13.82-15.24,20.86-22.72c0.99-1.05,1.75-3.64,4.22-2c2.95,4.47,1.83,9.56,2.2,14.42c-0.14,2.04,0.1,4.05,0.61,6.04
        c0.47,4.71,0.13,9.43,0.35,14.14c-0.17,2.01,0.16,3.96,0.65,5.9c0.47,4.69,0.13,9.39,0.35,14.08c-0.17,2,0.15,3.95,0.64,5.88
        c0.48,4.64,0.14,9.3,0.34,13.94c-0.19,1.91,0,3.8,0.49,5.66c0.34,2.16,0.41,4.31-0.38,6.4c-5.91,7.84-13,14.65-19.59,21.89
        c-20.58,22.62-41.22,45.18-61.89,67.72c-15.84,17.27-31.6,34.61-47.51,51.82c-4.74,5.13-9.56,10.18-14.12,15.47
        c-2,2.32-4.13,4.28-6.94,5.48L36.31,353.85z"/>
      <path class="st3" d="M182.35,140.12c-0.04-4.97-0.07-9.95-0.11-14.92c-1.06-1.55,0.19-3.51-0.89-5.06
        c-0.01-5.05-0.02-10.1-0.03-15.16c13.56,12.11,27.13,24.22,40.69,36.34c19.1,17.08,38.19,34.17,57.29,51.25
        c15.53,13.88,30.88,27.96,46.73,41.48c4.33,3.7,7.62,8.75,13.18,10.99c-15.59,13.09-31.19,26.18-46.77,39.28
        c-0.9,0.76-1.79,1.49-3.03,1.57c-5.16-0.92-7.94-5.29-11.42-8.39c-26.74-23.93-53.62-47.71-80.24-71.78
        c-3.33-3.01-6.9-5.75-9.95-9.05c-1.19-1.29-2.98-2.29-2.58-4.51c0.01-2.34,0.02-4.69,0.03-7.03c-1.08-1.54,0.18-3.5-0.9-5.05
        c-0.03-4.98-0.07-9.96-0.1-14.93c-1.08-1.54,0.18-3.5-0.9-5.05c-0.03-4.98-0.07-9.96-0.1-14.93
        C182.16,143.62,183.43,141.66,182.35,140.12z"/>
      <path class="st10" d="M334.33,61.17c-1.57,5.34-2.12,10.92-5.02,15.93c-7.64,13.24-18.73,20.94-34.1,22.2
        c-1.65,0.53-3.31,0.53-4.96,0c-21.89-0.44-39.24-20.44-39.29-41.31c-0.04-17.28,12.47-35.67,30.12-40.24
        c23.45-6.06,48.6,8.22,52.19,32.65c0.19,1.29,0.69,2.54,1.05,3.81C334.94,56.53,334.91,58.85,334.33,61.17z"/>
      <path class="st11" d="M334.33,61.17c-0.01-2.32-0.01-4.64-0.02-6.96C335.65,56.53,335.64,58.85,334.33,61.17z"/>
      <path class="st12" d="M290.25,99.3c1.65,0,3.31,0,4.96,0C293.56,100.46,291.91,100.46,290.25,99.3z"/>
      <path class="st2" d="M307.3,353.85c6.48-6.63,14-12.04,21.04-18.01c10.98-9.31,22.11-18.43,33.14-27.68
        c12.17-10.2,24.31-20.43,36.45-30.68c11.38-9.61,22.71-19.28,34.12-28.86c13.56-11.38,27.21-22.65,40.76-34.03
        c11.54-9.69,22.97-19.5,34.5-29.19c11.4-9.58,22.88-19.06,34.29-28.63c9.26-7.76,18.47-15.58,27.7-23.38
        c1.11-0.94,1.92-2.39,3.71-2.18c10.26,19.38,20.52,38.77,30.78,58.15c15.37,29.04,30.72,58.08,46.1,87.11
        c11.2,21.15,22.43,42.29,33.65,63.43c2.47,4.66,4.96,9.31,7.44,13.97C563.08,353.87,435.19,353.86,307.3,353.85z"/>
      <path class="st2" d="M185.22,192.15c7.66,6.77,15.33,13.52,22.96,20.32c15.53,13.84,31.25,27.48,46.49,41.63
        c11.5,10.68,23.86,20.42,34.73,31.78c-7.04,7.98-15.93,13.84-23.85,20.81c-9.54,8.38-19.42,16.38-29.14,24.56
        c-7.33,6.16-14.61,12.38-21.99,18.47c-1.15,0.95-2.38,1.76-3.19,3.05c-0.64,0.41-1.29,0.82-1.93,1.23
        c-47.11-0.04-94.21-0.08-141.32-0.12c-10.49-0.01-20.97-0.04-31.46-0.06c5.62-7.83,12.7-14.38,19.08-21.53
        c16.76-18.77,33.82-37.28,50.81-55.84c8.5-9.29,17.18-18.41,25.67-27.7c12.73-13.93,25.34-27.97,38.04-41.93
        c4.01-4.41,8.65-8.25,12.12-13.16C182.92,192.69,183.9,191.99,185.22,192.15z"/>
      <path class="st13" d="M181.35,120.14c1.36,1.5,0.85,3.33,0.89,5.06C180.89,123.7,181.39,121.87,181.35,120.14z"/>
      <path class="st13" d="M182.35,140.12c1.36,1.49,0.84,3.32,0.9,5.05C181.88,143.67,182.39,141.85,182.35,140.12z"/>
      <path class="st13" d="M183.35,160.1c1.36,1.49,0.84,3.32,0.9,5.05C182.88,163.65,183.39,161.82,183.35,160.1z"/>
      <path class="st13" d="M184.35,180.08c1.36,1.49,0.84,3.32,0.9,5.05C183.88,183.63,184.39,181.8,184.35,180.08z"/>
    </g>
  </g>
</g>
<g id="Capa_2">
  <polyline class="st2" points="179.55,103.44 0,299.96 0,355 34.62,355 184.32,191.79 179.55,103.44 	"/>
  <line class="st10" x1="291.21" y1="287.7" x2="184.32" y2="191.79"/>
  <polygon class="st10" points="291.21,287.7 184.32,191.79 179.55,103.44 340.91,246.77 	"/>
  <polygon class="st2" points="572.57,130.68 591.23,33.25 207.45,355.3 305.51,355 	"/>
  <polygon class="st10" points="724.57,282.17 724.57,357.91 692.23,357.06 572.57,130.68 591.23,33.25 	"/>
  <circle class="st2" cx="292.4" cy="57.68" r="41.9"/>
</g>
</svg>
